<svg xmlns="http://www.w3.org/2000/svg" xmlns:xlink="http://www.w3.org/1999/xlink" width="150" zoomAndPan="magnify" viewBox="0 0 375 374.999991" height="100" preserveAspectRatio="xMidYMid meet" version="1.0"><defs><g/><clipPath id="ad005c4920"><path d="M 144 220 L 163 220 L 163 241 L 144 241 Z M 144 220 " clip-rule="nonzero"/></clipPath><clipPath id="4accb13a37"><path d="M 145.339844 227.789062 C 143.25 233.183594 145.339844 238.675781 149.992188 240.003906 C 154.644531 241.328125 160.226562 237.898438 162.226562 232.378906 C 164.226562 226.859375 161.980469 221.59375 157.339844 220.378906 C 152.703125 219.164062 147.398438 222.4375 145.339844 227.789062 Z M 145.339844 227.789062 " clip-rule="nonzero"/></clipPath><clipPath id="c27616eda0"><path d="M 116 83 L 248 83 L 248 226 L 116 226 Z M 116 83 " clip-rule="nonzero"/></clipPath><clipPath id="f61d2a9bfa"><path d="M 247.707031 96.953125 L 240.828125 119.59375 L 209.875 221.425781 C 208.925781 224.542969 205.828125 226.5 202.980469 225.769531 L 170.445312 217.433594 C 169.484375 215.597656 168.195312 214.035156 166.574219 212.746094 C 164.953125 211.457031 163.140625 210.550781 161.136719 210.027344 C 156.929688 208.921875 152.421875 209.652344 148.347656 211.757812 L 119.304688 204.332031 C 116.878906 203.710938 115.925781 200.953125 117.148438 198.183594 L 122.171875 186.796875 L 166.589844 86.082031 C 166.832031 85.585938 167.144531 85.132812 167.523438 84.726562 C 167.902344 84.324219 168.332031 83.984375 168.816406 83.710938 C 169.296875 83.4375 169.808594 83.246094 170.351562 83.128906 C 170.894531 83.011719 171.441406 82.976562 171.992188 83.027344 L 244.5 92.484375 C 246.910156 92.796875 248.367188 94.789062 247.707031 96.953125 Z M 247.707031 96.953125 " clip-rule="nonzero"/></clipPath><clipPath id="daac980e77"><path d="M 75.238281 37 L 287 37 L 287 243.269531 L 75.238281 243.269531 Z M 75.238281 37 " clip-rule="nonzero"/></clipPath><clipPath id="36a330e80c"><path d="M 181.054688 37.640625 C 178.597656 37.640625 176.140625 37.726562 173.691406 37.894531 C 171.238281 38.066406 168.796875 38.324219 166.363281 38.664062 C 163.929688 39.003906 161.511719 39.429688 159.109375 39.941406 C 156.707031 40.449219 154.324219 41.042969 151.960938 41.71875 C 149.597656 42.394531 147.261719 43.152344 144.953125 43.992188 C 142.644531 44.832031 140.367188 45.75 138.121094 46.746094 C 135.878906 47.746094 133.667969 48.820312 131.5 49.972656 C 129.328125 51.125 127.203125 52.351562 125.117188 53.652344 C 123.03125 54.953125 120.996094 56.324219 119.007812 57.765625 C 117.015625 59.207031 115.082031 60.71875 113.195312 62.296875 C 111.3125 63.871094 109.488281 65.515625 107.71875 67.21875 C 105.949219 68.921875 104.242188 70.6875 102.59375 72.511719 C 100.949219 74.335938 99.367188 76.214844 97.851562 78.148438 C 96.335938 80.082031 94.890625 82.070312 93.515625 84.105469 C 92.136719 86.140625 90.835938 88.21875 89.601562 90.34375 C 88.371094 92.472656 87.214844 94.636719 86.136719 96.84375 C 85.054688 99.050781 84.054688 101.292969 83.128906 103.570312 C 82.203125 105.847656 81.363281 108.152344 80.597656 110.488281 C 79.835938 112.824219 79.15625 115.183594 78.554688 117.566406 C 77.957031 119.949219 77.441406 122.351562 77.011719 124.769531 C 76.582031 127.1875 76.234375 129.617188 75.972656 132.0625 C 75.710938 134.503906 75.535156 136.953125 75.445312 139.410156 C 75.355469 141.863281 75.347656 144.320312 75.429688 146.777344 C 75.511719 149.230469 75.675781 151.679688 75.929688 154.125 C 76.179688 156.570312 76.515625 159.003906 76.9375 161.421875 C 77.359375 163.84375 77.863281 166.246094 78.453125 168.632812 C 79.042969 171.015625 79.714844 173.378906 80.464844 175.71875 C 81.21875 178.054688 82.054688 180.367188 82.96875 182.644531 C 83.882812 184.925781 84.878906 187.171875 85.949219 189.382812 C 87.019531 191.59375 88.167969 193.765625 89.390625 195.894531 C 90.613281 198.027344 91.910156 200.113281 93.277344 202.152344 C 94.644531 204.195312 96.082031 206.183594 97.589844 208.125 L 97.105469 221.949219 L 116.613281 178.621094 L 160.585938 81.746094 C 161.085938 80.757812 161.714844 79.867188 162.480469 79.070312 C 163.242188 78.269531 164.105469 77.601562 165.070312 77.058594 C 166.035156 76.519531 167.054688 76.132812 168.132812 75.894531 C 169.214844 75.660156 170.304688 75.585938 171.40625 75.675781 L 250.921875 85.515625 C 255.839844 86.121094 258.851562 90.085938 257.597656 94.425781 L 214.441406 243.597656 C 215.792969 243.144531 217.132812 242.660156 218.457031 242.160156 L 260.917969 95.390625 C 261.304688 94.101562 261.429688 92.789062 261.285156 91.453125 C 261.144531 90.113281 260.75 88.855469 260.101562 87.675781 C 264.019531 88.871094 266.242188 92.414062 265.128906 96.242188 L 223.519531 240.074219 C 226.269531 238.867188 228.964844 237.542969 231.605469 236.105469 C 234.242188 234.667969 236.8125 233.121094 239.320312 231.464844 C 241.828125 229.808594 244.257812 228.046875 246.613281 226.183594 C 248.96875 224.316406 251.242188 222.355469 253.433594 220.296875 C 255.621094 218.238281 257.71875 216.089844 259.722656 213.855469 C 261.730469 211.617188 263.636719 209.296875 265.445312 206.898438 C 267.253906 204.5 268.953125 202.027344 270.550781 199.480469 C 272.148438 196.9375 273.632812 194.328125 275.007812 191.65625 C 276.382812 188.984375 277.640625 186.257812 278.785156 183.480469 C 279.925781 180.699219 280.949219 177.878906 281.847656 175.011719 C 282.75 172.144531 283.527344 169.246094 284.183594 166.3125 C 284.835938 163.382812 285.363281 160.425781 285.765625 157.449219 C 286.167969 154.472656 286.445312 151.480469 286.589844 148.480469 C 286.738281 145.480469 286.757812 142.476562 286.648438 139.476562 C 286.539062 136.472656 286.304688 133.480469 285.9375 130.496094 C 285.574219 127.515625 285.085938 124.554688 284.46875 121.613281 C 283.851562 118.671875 283.109375 115.761719 282.246094 112.886719 C 281.378906 110.007812 280.394531 107.171875 279.289062 104.378906 C 278.179688 101.585938 276.957031 98.84375 275.617188 96.15625 C 274.277344 93.464844 272.824219 90.839844 271.257812 88.273438 C 269.695312 85.710938 268.023438 83.214844 266.246094 80.792969 C 264.46875 78.371094 262.59375 76.027344 260.617188 73.765625 C 258.636719 71.503906 256.570312 69.328125 254.40625 67.242188 C 252.242188 65.15625 249.996094 63.164062 247.664062 61.273438 C 245.332031 59.378906 242.921875 57.585938 240.4375 55.898438 C 237.953125 54.207031 235.402344 52.628906 232.78125 51.15625 C 230.160156 49.683594 227.484375 48.328125 224.746094 47.085938 C 222.011719 45.84375 219.230469 44.71875 216.398438 43.714844 C 213.566406 42.707031 210.695312 41.824219 207.789062 41.0625 C 204.882812 40.304688 201.949219 39.667969 198.988281 39.15625 C 196.027344 38.644531 193.050781 38.261719 190.058594 38.007812 C 187.0625 37.75 184.0625 37.621094 181.058594 37.621094 Z M 181.054688 37.640625 " clip-rule="nonzero"/></clipPath><clipPath id="4b435b0846"><path d="M 121 16.019531 L 135 16.019531 L 135 30 L 121 30 Z M 121 16.019531 " clip-rule="nonzero"/></clipPath><clipPath id="57e41f925d"><path d="M 134.890625 22.640625 C 134.890625 23.078125 134.847656 23.507812 134.761719 23.933594 C 134.675781 24.359375 134.550781 24.773438 134.386719 25.175781 C 134.21875 25.578125 134.015625 25.960938 133.773438 26.320312 C 133.53125 26.683594 133.257812 27.019531 132.949219 27.324219 C 132.640625 27.632812 132.308594 27.90625 131.945312 28.148438 C 131.585938 28.390625 131.203125 28.59375 130.800781 28.761719 C 130.398438 28.925781 129.984375 29.054688 129.558594 29.136719 C 129.132812 29.222656 128.699219 29.265625 128.265625 29.265625 C 127.832031 29.265625 127.398438 29.222656 126.972656 29.136719 C 126.546875 29.054688 126.132812 28.925781 125.730469 28.761719 C 125.328125 28.59375 124.949219 28.390625 124.585938 28.148438 C 124.222656 27.90625 123.890625 27.632812 123.582031 27.324219 C 123.273438 27.019531 123 26.683594 122.757812 26.320312 C 122.515625 25.960938 122.3125 25.578125 122.144531 25.175781 C 121.980469 24.773438 121.855469 24.359375 121.769531 23.933594 C 121.683594 23.507812 121.640625 23.078125 121.640625 22.640625 C 121.640625 22.207031 121.683594 21.777344 121.769531 21.347656 C 121.855469 20.921875 121.980469 20.507812 122.144531 20.105469 C 122.3125 19.703125 122.515625 19.324219 122.757812 18.960938 C 123 18.601562 123.273438 18.265625 123.582031 17.957031 C 123.890625 17.648438 124.222656 17.375 124.585938 17.132812 C 124.949219 16.890625 125.328125 16.6875 125.730469 16.523438 C 126.132812 16.355469 126.546875 16.230469 126.972656 16.144531 C 127.398438 16.058594 127.832031 16.019531 128.265625 16.019531 C 128.699219 16.019531 129.132812 16.058594 129.558594 16.144531 C 129.984375 16.230469 130.398438 16.355469 130.800781 16.523438 C 131.203125 16.6875 131.585938 16.890625 131.945312 17.132812 C 132.308594 17.375 132.640625 17.648438 132.949219 17.957031 C 133.257812 18.265625 133.53125 18.601562 133.773438 18.960938 C 134.015625 19.324219 134.21875 19.703125 134.386719 20.105469 C 134.550781 20.507812 134.675781 20.921875 134.761719 21.347656 C 134.847656 21.777344 134.890625 22.207031 134.890625 22.640625 Z M 134.890625 22.640625 " clip-rule="nonzero"/></clipPath><clipPath id="ad5cd4657e"><path d="M 263 54 L 288.238281 54 L 288.238281 80 L 263 80 Z M 263 54 " clip-rule="nonzero"/></clipPath><clipPath id="32246a9670"><path d="M 288.1875 66.839844 C 288.1875 67.648438 288.109375 68.445312 287.953125 69.238281 C 287.796875 70.03125 287.5625 70.800781 287.253906 71.546875 C 286.945312 72.292969 286.566406 73 286.117188 73.671875 C 285.667969 74.34375 285.15625 74.964844 284.585938 75.535156 C 284.015625 76.109375 283.394531 76.617188 282.722656 77.066406 C 282.050781 77.515625 281.34375 77.894531 280.597656 78.203125 C 279.851562 78.511719 279.082031 78.746094 278.289062 78.902344 C 277.496094 79.058594 276.695312 79.140625 275.890625 79.140625 C 275.082031 79.140625 274.28125 79.058594 273.488281 78.902344 C 272.695312 78.746094 271.929688 78.511719 271.179688 78.203125 C 270.433594 77.894531 269.726562 77.515625 269.054688 77.066406 C 268.382812 76.617188 267.761719 76.109375 267.191406 75.535156 C 266.621094 74.964844 266.109375 74.34375 265.660156 73.671875 C 265.210938 73 264.832031 72.292969 264.523438 71.546875 C 264.214844 70.800781 263.980469 70.03125 263.824219 69.238281 C 263.667969 68.445312 263.589844 67.648438 263.589844 66.839844 C 263.589844 66.03125 263.667969 65.230469 263.824219 64.4375 C 263.980469 63.648438 264.214844 62.878906 264.523438 62.132812 C 264.832031 61.386719 265.210938 60.675781 265.660156 60.003906 C 266.109375 59.332031 266.621094 58.710938 267.191406 58.140625 C 267.761719 57.570312 268.382812 57.058594 269.054688 56.613281 C 269.726562 56.164062 270.433594 55.785156 271.179688 55.476562 C 271.929688 55.164062 272.695312 54.933594 273.488281 54.773438 C 274.28125 54.617188 275.082031 54.539062 275.890625 54.539062 C 276.695312 54.539062 277.496094 54.617188 278.289062 54.773438 C 279.082031 54.933594 279.851562 55.164062 280.597656 55.476562 C 281.34375 55.785156 282.050781 56.164062 282.722656 56.613281 C 283.394531 57.058594 284.015625 57.570312 284.585938 58.140625 C 285.15625 58.710938 285.667969 59.332031 286.117188 60.003906 C 286.566406 60.675781 286.945312 61.386719 287.253906 62.132812 C 287.5625 62.878906 287.796875 63.648438 287.953125 64.4375 C 288.109375 65.230469 288.1875 66.03125 288.1875 66.839844 Z M 288.1875 66.839844 " clip-rule="nonzero"/></clipPath><clipPath id="f599ca8478"><path d="M 122 83 L 248 83 L 248 187 L 122 187 Z M 122 83 " clip-rule="nonzero"/></clipPath><clipPath id="65b2a02f5d"><path d="M 247.707031 96.953125 L 240.828125 119.59375 L 122.171875 186.796875 L 166.589844 86.082031 C 166.832031 85.585938 167.144531 85.132812 167.523438 84.726562 C 167.902344 84.324219 168.332031 83.984375 168.816406 83.710938 C 169.296875 83.4375 169.808594 83.246094 170.351562 83.128906 C 170.894531 83.011719 171.441406 82.976562 171.992188 83.027344 L 244.5 92.484375 C 246.910156 92.796875 248.367188 94.789062 247.707031 96.953125 Z M 247.707031 96.953125 " clip-rule="nonzero"/></clipPath></defs><g clip-path="url(#ad005c4920)"><g clip-path="url(#4accb13a37)"><path fill="#ffffff" d="M 143.25 219.164062 L 143.25 241.328125 L 164.226562 241.328125 L 164.226562 219.164062 Z M 143.25 219.164062 " fill-opacity="1" fill-rule="nonzero"/></g></g><g clip-path="url(#c27616eda0)"><g clip-path="url(#f61d2a9bfa)"><path fill="#ffffff" d="M 115.925781 82.976562 L 115.925781 226.5 L 248.367188 226.5 L 248.367188 82.976562 Z M 115.925781 82.976562 " fill-opacity="1" fill-rule="nonzero"/></g></g><g clip-path="url(#daac980e77)"><g clip-path="url(#36a330e80c)"><path fill="#ffffff" d="M 75.347656 37.621094 L 75.347656 243.269531 L 286.757812 243.269531 L 286.757812 37.621094 Z M 75.347656 37.621094 " fill-opacity="1" fill-rule="nonzero"/></g></g><path fill="#ffffff" d="M 136.582031 105.027344 C 136.582031 105.65625 136.550781 106.289062 136.488281 106.917969 C 136.425781 107.542969 136.335938 108.167969 136.210938 108.789062 C 136.085938 109.40625 135.933594 110.019531 135.75 110.621094 C 135.566406 111.226562 135.355469 111.820312 135.113281 112.402344 C 134.871094 112.988281 134.601562 113.558594 134.304688 114.113281 C 134.007812 114.671875 133.683594 115.210938 133.332031 115.734375 C 132.980469 116.261719 132.605469 116.769531 132.207031 117.253906 C 131.804688 117.742188 131.382812 118.210938 130.933594 118.65625 C 130.488281 119.105469 130.023438 119.527344 129.535156 119.929688 C 129.046875 120.328125 128.539062 120.703125 128.015625 121.054688 C 127.488281 121.40625 126.949219 121.730469 126.390625 122.027344 C 125.835938 122.324219 125.265625 122.59375 124.679688 122.835938 C 124.097656 123.078125 123.503906 123.289062 122.898438 123.472656 C 122.296875 123.65625 121.683594 123.808594 121.066406 123.933594 C 120.445312 124.054688 119.824219 124.148438 119.195312 124.210938 C 118.566406 124.273438 117.9375 124.304688 117.304688 124.304688 C 116.671875 124.304688 116.042969 124.273438 115.414062 124.210938 C 114.785156 124.148438 114.164062 124.054688 113.542969 123.933594 C 112.925781 123.808594 112.3125 123.65625 111.707031 123.472656 C 111.105469 123.289062 110.511719 123.078125 109.925781 122.835938 C 109.34375 122.59375 108.773438 122.324219 108.21875 122.027344 C 107.660156 121.730469 107.121094 121.40625 106.59375 121.054688 C 106.070312 120.703125 105.5625 120.328125 105.074219 119.929688 C 104.585938 119.527344 104.121094 119.105469 103.675781 118.65625 C 103.226562 118.210938 102.804688 117.742188 102.402344 117.253906 C 102.003906 116.769531 101.628906 116.261719 101.277344 115.734375 C 100.925781 115.210938 100.601562 114.671875 100.304688 114.113281 C 100.007812 113.558594 99.738281 112.988281 99.496094 112.402344 C 99.253906 111.820312 99.042969 111.226562 98.859375 110.621094 C 98.675781 110.019531 98.519531 109.40625 98.398438 108.789062 C 98.273438 108.167969 98.183594 107.542969 98.121094 106.917969 C 98.058594 106.289062 98.027344 105.65625 98.027344 105.027344 C 98.027344 104.394531 98.058594 103.765625 98.121094 103.136719 C 98.183594 102.507812 98.273438 101.886719 98.398438 101.265625 C 98.519531 100.648438 98.675781 100.035156 98.859375 99.429688 C 99.042969 98.828125 99.253906 98.234375 99.496094 97.648438 C 99.738281 97.066406 100.007812 96.496094 100.304688 95.941406 C 100.601562 95.382812 100.925781 94.84375 101.277344 94.316406 C 101.628906 93.792969 102.003906 93.285156 102.402344 92.796875 C 102.804688 92.308594 103.226562 91.84375 103.675781 91.394531 C 104.121094 90.949219 104.585938 90.527344 105.074219 90.125 C 105.5625 89.726562 106.070312 89.347656 106.59375 89 C 107.121094 88.648438 107.660156 88.324219 108.21875 88.027344 C 108.773438 87.726562 109.34375 87.457031 109.925781 87.21875 C 110.511719 86.976562 111.105469 86.761719 111.707031 86.578125 C 112.3125 86.398438 112.925781 86.242188 113.542969 86.121094 C 114.164062 85.996094 114.785156 85.90625 115.414062 85.84375 C 116.042969 85.78125 116.671875 85.75 117.304688 85.75 C 117.9375 85.75 118.566406 85.78125 119.195312 85.84375 C 119.824219 85.90625 120.445312 85.996094 121.066406 86.121094 C 121.683594 86.242188 122.296875 86.398438 122.898438 86.578125 C 123.503906 86.761719 124.097656 86.976562 124.679688 87.21875 C 125.265625 87.457031 125.835938 87.726562 126.390625 88.027344 C 126.949219 88.324219 127.488281 88.648438 128.015625 89 C 128.539062 89.347656 129.046875 89.726562 129.535156 90.125 C 130.023438 90.527344 130.488281 90.949219 130.933594 91.394531 C 131.382812 91.84375 131.804688 92.308594 132.207031 92.796875 C 132.605469 93.285156 132.980469 93.792969 133.332031 94.316406 C 133.683594 94.84375 134.007812 95.382812 134.304688 95.941406 C 134.601562 96.496094 134.871094 97.066406 135.113281 97.648438 C 135.355469 98.234375 135.566406 98.828125 135.75 99.429688 C 135.933594 100.035156 136.085938 100.648438 136.210938 101.265625 C 136.335938 101.886719 136.425781 102.507812 136.488281 103.136719 C 136.550781 103.765625 136.582031 104.394531 136.582031 105.027344 Z M 136.582031 105.027344 " fill-opacity="1" fill-rule="nonzero"/><g clip-path="url(#4b435b0846)"><g clip-path="url(#57e41f925d)"><path fill="#ffffff" d="M 121.640625 16.019531 L 121.640625 29.265625 L 134.890625 29.265625 L 134.890625 16.019531 Z M 121.640625 16.019531 " fill-opacity="1" fill-rule="nonzero"/></g></g><g clip-path="url(#ad5cd4657e)"><g clip-path="url(#32246a9670)"><path fill="#ffffff" d="M 263.589844 54.539062 L 263.589844 79.140625 L 288.1875 79.140625 L 288.1875 54.539062 Z M 263.589844 54.539062 " fill-opacity="1" fill-rule="nonzero"/></g></g><g clip-path="url(#f599ca8478)"><g clip-path="url(#65b2a02f5d)"><path fill="#ffffff" d="M 122.171875 82.976562 L 122.171875 186.796875 L 248.367188 186.796875 L 248.367188 82.976562 Z M 122.171875 82.976562 " fill-opacity="1" fill-rule="nonzero"/></g></g><g fill="#ffffff" fill-opacity="1"><g transform="translate(3.904158, 303.198935)"><g><path d="M 17.507812 0.65625 C 25.9375 0.65625 32.3125 -4.453125 33.621094 -12.226562 L 24.667969 -12.226562 C 23.578125 -9.34375 21.003906 -7.511719 17.683594 -7.511719 C 13.40625 -7.511719 10.4375 -10.699219 10.4375 -15.28125 C 10.4375 -19.910156 13.449219 -23.054688 17.769531 -23.054688 C 20.957031 -23.054688 23.621094 -21.265625 24.539062 -18.511719 L 33.445312 -18.511719 C 31.875 -26.242188 25.585938 -31.21875 17.421875 -31.21875 C 7.992188 -31.21875 1.484375 -24.714844 1.484375 -15.28125 C 1.484375 -5.851562 7.992188 0.65625 17.507812 0.65625 Z M 17.507812 0.65625 "/></g></g></g><g fill="#ffffff" fill-opacity="1"><g transform="translate(43.198609, 303.198935)"><g><path d="M 3.230469 0 L 24.667969 0 L 24.667969 -7.203125 L 11.964844 -7.203125 L 11.964844 -11.921875 L 23.011719 -11.921875 L 23.011719 -18.992188 L 11.964844 -18.992188 L 11.964844 -23.449219 L 24.191406 -23.449219 L 24.191406 -30.5625 L 3.230469 -30.5625 Z M 3.230469 0 "/></g></g></g><g fill="#ffffff" fill-opacity="1"><g transform="translate(74.110331, 303.198935)"><g><path d="M 3.230469 0 L 24.539062 0 L 24.539062 -8.164062 L 12.050781 -8.164062 L 12.050781 -30.5625 L 3.230469 -30.5625 Z M 3.230469 0 "/></g></g></g><g fill="#ffffff" fill-opacity="1"><g transform="translate(104.017862, 303.198935)"><g><path d="M 16.375 0.65625 C 24.625 0.65625 29.734375 -4.367188 29.734375 -12.574219 L 29.734375 -30.5625 L 20.957031 -30.5625 L 20.957031 -13.144531 C 20.957031 -9.519531 19.429688 -7.597656 16.375 -7.597656 C 13.316406 -7.597656 11.789062 -9.519531 11.789062 -13.144531 L 11.789062 -30.5625 L 2.96875 -30.5625 L 2.96875 -12.574219 C 2.96875 -4.367188 8.121094 0.65625 16.375 0.65625 Z M 16.375 0.65625 "/></g></g></g><g fill="#ffffff" fill-opacity="1"><g transform="translate(141.041987, 303.198935)"><g><path d="M 3.230469 0 L 24.539062 0 L 24.539062 -8.164062 L 12.050781 -8.164062 L 12.050781 -30.5625 L 3.230469 -30.5625 Z M 3.230469 0 "/></g></g></g><g fill="#ffffff" fill-opacity="1"><g transform="translate(170.949514, 303.198935)"><g><path d="M 0.21875 0 L 9.5625 0 L 11.222656 -4.324219 L 21.65625 -4.324219 L 23.316406 0 L 32.703125 0 L 20.828125 -30.5625 L 12.09375 -30.5625 Z M 13.054688 -10.785156 L 16.460938 -20.261719 L 19.867188 -10.785156 Z M 13.054688 -10.785156 "/></g></g></g><g fill="#ffffff" fill-opacity="1"><g transform="translate(208.148296, 303.198935)"><g><path d="M 3.230469 0 L 12.050781 0 L 12.050781 -8.6875 L 15.371094 -8.6875 L 19.734375 0 L 29.734375 0 L 24.101562 -10.304688 C 27.332031 -12.09375 29.167969 -15.324219 29.167969 -19.605469 C 29.167969 -26.371094 24.582031 -30.5625 17.160156 -30.5625 L 3.230469 -30.5625 Z M 11.875 -15.71875 L 11.875 -23.359375 L 15.980469 -23.359375 C 18.773438 -23.359375 20.304688 -22.007812 20.304688 -19.5625 C 20.304688 -17.117188 18.773438 -15.71875 15.980469 -15.71875 Z M 11.875 -15.71875 "/></g></g></g><g fill="#ffffff" fill-opacity="1"><g transform="translate(243.862623, 303.198935)"><g><path d="M 0.21875 0 L 9.5625 0 L 11.222656 -4.324219 L 21.65625 -4.324219 L 23.316406 0 L 32.703125 0 L 20.828125 -30.5625 L 12.09375 -30.5625 Z M 13.054688 -10.785156 L 16.460938 -20.261719 L 19.867188 -10.785156 Z M 13.054688 -10.785156 "/></g></g></g><g fill="#ffffff" fill-opacity="1"><g transform="translate(281.061395, 303.198935)"><g><path d="M 3.230469 0 L 11.964844 0 L 11.964844 -15.5 L 17.859375 -7.25 L 23.578125 -7.25 L 29.429688 -15.457031 L 29.429688 0 L 38.160156 0 L 38.160156 -30.5625 L 31 -30.5625 L 20.695312 -16.023438 L 10.4375 -30.5625 L 3.230469 -30.5625 Z M 3.230469 0 "/></g></g></g><g fill="#ffffff" fill-opacity="1"><g transform="translate(326.730208, 303.198935)"><g><path d="M 0.21875 0 L 9.5625 0 L 11.222656 -4.324219 L 21.65625 -4.324219 L 23.316406 0 L 32.703125 0 L 20.828125 -30.5625 L 12.09375 -30.5625 Z M 13.054688 -10.785156 L 16.460938 -20.261719 L 19.867188 -10.785156 Z M 13.054688 -10.785156 "/></g></g></g><g fill="#ffffff" fill-opacity="1"><g transform="translate(38.839022, 332.475623)"><g><path d="M 9.84375 0 L 9.84375 -2.125 L 3.691406 -2.125 L 3.691406 -14.222656 L 1.324219 -14.222656 L 1.324219 0 Z M 9.84375 0 "/></g></g></g><g fill="#ffffff" fill-opacity="1"><g transform="translate(54.862454, 332.475623)"><g><path d="M 7.605469 0.242188 C 12.230469 0.242188 14.410156 -3.207031 14.410156 -7.121094 C 14.410156 -11.035156 12.230469 -14.449219 7.605469 -14.449219 C 2.964844 -14.449219 0.800781 -11.035156 0.800781 -7.121094 C 0.800781 -3.207031 2.964844 0.242188 7.605469 0.242188 Z M 7.605469 -1.882812 C 4.808594 -1.882812 3.242188 -4.046875 3.242188 -7.121094 C 3.242188 -10.179688 4.808594 -12.339844 7.605469 -12.339844 C 10.421875 -12.339844 11.96875 -10.179688 11.96875 -7.121094 C 11.96875 -4.046875 10.421875 -1.882812 7.605469 -1.882812 Z M 7.605469 -1.882812 "/></g></g></g><g fill="#ffffff" fill-opacity="1"><g transform="translate(76.044305, 332.475623)"><g><path d="M 2.050781 0 C 5.050781 0 6.019531 -1.101562 6.019531 -3.691406 L 6.019531 -14.222656 L 3.636719 -14.222656 L 3.636719 -3.710938 C 3.636719 -2.574219 3.074219 -2.125 2.050781 -2.125 L 0.242188 -2.125 L 0.242188 0 Z M 2.050781 0 "/></g></g></g><g fill="#ffffff" fill-opacity="1"><g transform="translate(89.293002, 332.475623)"><g><path d="M 2.628906 0 L 3.691406 -3.113281 L 9.453125 -3.113281 L 10.496094 0 L 12.957031 0 L 7.867188 -14.222656 L 5.257812 -14.222656 L 0.167969 0 Z M 6.5625 -11.6875 L 8.742188 -5.183594 L 4.382812 -5.183594 Z M 6.5625 -11.6875 "/></g></g></g><g fill="#ffffff" fill-opacity="1"><g transform="translate(108.370517, 332.475623)"><g/></g></g><g fill="#ffffff" fill-opacity="1"><g transform="translate(119.403159, 332.475623)"><g><path d="M 5.386719 0 C 10.179688 0 12.789062 -2.554688 12.789062 -7.101562 C 12.789062 -11.671875 10.179688 -14.222656 5.40625 -14.222656 L 1.324219 -14.222656 L 1.324219 0 Z M 3.691406 -12.097656 L 5.367188 -12.097656 C 8.390625 -12.097656 10.421875 -10.664062 10.421875 -7.101562 C 10.421875 -3.242188 8.257812 -2.125 5.367188 -2.125 L 3.691406 -2.125 Z M 3.691406 -12.097656 "/></g></g></g><g fill="#ffffff" fill-opacity="1"><g transform="translate(138.964857, 332.475623)"><g><path d="M 10.738281 0 L 10.738281 -2.125 L 3.691406 -2.125 L 3.691406 -6.078125 L 9.953125 -6.078125 L 9.953125 -8.183594 L 3.691406 -8.183594 L 3.691406 -12.097656 L 10.738281 -12.097656 L 10.738281 -14.222656 L 1.324219 -14.222656 L 1.324219 0 Z M 10.738281 0 "/></g></g></g><g fill="#ffffff" fill-opacity="1"><g transform="translate(156.459471, 332.475623)"><g/></g></g><g fill="#ffffff" fill-opacity="1"><g transform="translate(167.492113, 332.475623)"><g><path d="M 7.570312 0.242188 C 10.980469 0.242188 13.085938 -1.621094 13.515625 -4.511719 L 10.925781 -4.511719 C 10.625 -2.742188 9.320312 -1.863281 7.53125 -1.863281 C 4.714844 -1.863281 3.242188 -4.046875 3.242188 -7.121094 C 3.242188 -10.179688 4.714844 -12.339844 7.53125 -12.339844 C 9.320312 -12.339844 10.625 -11.464844 10.925781 -9.9375 L 13.515625 -9.9375 C 13.105469 -12.621094 10.980469 -14.449219 7.570312 -14.449219 C 2.925781 -14.449219 0.800781 -11.015625 0.800781 -7.121094 C 0.800781 -3.226562 2.925781 0.242188 7.570312 0.242188 Z M 7.570312 0.242188 "/></g></g></g><g fill="#ffffff" fill-opacity="1"><g transform="translate(187.612483, 332.475623)"><g><path d="M 10.738281 0 L 10.738281 -2.125 L 3.691406 -2.125 L 3.691406 -6.078125 L 9.953125 -6.078125 L 9.953125 -8.183594 L 3.691406 -8.183594 L 3.691406 -12.097656 L 10.738281 -12.097656 L 10.738281 -14.222656 L 1.324219 -14.222656 L 1.324219 0 Z M 10.738281 0 "/></g></g></g><g fill="#ffffff" fill-opacity="1"><g transform="translate(205.107098, 332.475623)"><g><path d="M 9.84375 0 L 9.84375 -2.125 L 3.691406 -2.125 L 3.691406 -14.222656 L 1.324219 -14.222656 L 1.324219 0 Z M 9.84375 0 "/></g></g></g><g fill="#ffffff" fill-opacity="1"><g transform="translate(221.130522, 332.475623)"><g><path d="M 6.785156 0.242188 C 10.699219 0.242188 12.359375 -1.882812 12.359375 -5.070312 L 12.359375 -14.222656 L 9.992188 -14.222656 L 9.992188 -5.070312 C 9.992188 -3.167969 9.132812 -1.863281 6.785156 -1.863281 C 4.417969 -1.863281 3.5625 -3.167969 3.5625 -5.070312 L 3.5625 -14.222656 L 1.191406 -14.222656 L 1.191406 -5.070312 C 1.191406 -1.882812 2.871094 0.242188 6.785156 0.242188 Z M 6.785156 0.242188 "/></g></g></g><g fill="#ffffff" fill-opacity="1"><g transform="translate(240.654966, 332.475623)"><g><path d="M 9.84375 0 L 9.84375 -2.125 L 3.691406 -2.125 L 3.691406 -14.222656 L 1.324219 -14.222656 L 1.324219 0 Z M 9.84375 0 "/></g></g></g><g fill="#ffffff" fill-opacity="1"><g transform="translate(256.678402, 332.475623)"><g><path d="M 2.628906 0 L 3.691406 -3.113281 L 9.453125 -3.113281 L 10.496094 0 L 12.957031 0 L 7.867188 -14.222656 L 5.257812 -14.222656 L 0.167969 0 Z M 6.5625 -11.6875 L 8.742188 -5.183594 L 4.382812 -5.183594 Z M 6.5625 -11.6875 "/></g></g></g><g fill="#ffffff" fill-opacity="1"><g transform="translate(275.755916, 332.475623)"><g><path d="M 9.359375 -6.207031 C 10.8125 -6.859375 11.6875 -8.183594 11.6875 -10.066406 C 11.6875 -12.957031 9.863281 -14.222656 7.195312 -14.222656 L 1.324219 -14.222656 L 1.324219 0 L 3.691406 0 L 3.691406 -5.796875 L 7.085938 -5.796875 L 9.433594 0 L 11.988281 0 Z M 3.691406 -12.097656 L 6.878906 -12.097656 C 8.464844 -12.097656 9.359375 -11.351562 9.359375 -9.992188 C 9.359375 -8.613281 8.480469 -7.867188 6.878906 -7.867188 L 3.691406 -7.867188 Z M 3.691406 -12.097656 "/></g></g></g><g fill="#ffffff" fill-opacity="1"><g transform="translate(294.367874, 332.475623)"><g><path d="M 10.738281 0 L 10.738281 -2.125 L 3.691406 -2.125 L 3.691406 -6.078125 L 9.953125 -6.078125 L 9.953125 -8.183594 L 3.691406 -8.183594 L 3.691406 -12.097656 L 10.738281 -12.097656 L 10.738281 -14.222656 L 1.324219 -14.222656 L 1.324219 0 Z M 10.738281 0 "/></g></g></g><g fill="#ffffff" fill-opacity="1"><g transform="translate(311.862488, 332.475623)"><g><path d="M 6.804688 0.242188 C 10.140625 0.242188 12.023438 -1.453125 12.023438 -4.082031 C 12.023438 -7.269531 9.300781 -7.847656 6.933594 -8.371094 C 5.144531 -8.761719 3.5625 -9.117188 3.5625 -10.570312 C 3.5625 -11.746094 4.53125 -12.414062 6.058594 -12.414062 C 7.570312 -12.414062 8.875 -11.746094 9.265625 -10.105469 L 11.632812 -10.105469 C 11.167969 -13.125 8.742188 -14.449219 6.097656 -14.449219 C 3.28125 -14.449219 1.191406 -12.992188 1.191406 -10.363281 C 1.191406 -7.4375 3.765625 -6.878906 6.039062 -6.394531 C 7.921875 -5.984375 9.65625 -5.609375 9.65625 -3.933594 C 9.65625 -2.480469 8.5 -1.789062 6.839844 -1.789062 C 5.277344 -1.789062 3.578125 -2.40625 3.113281 -4.511719 L 0.707031 -4.511719 C 1.101562 -1.007812 4.046875 0.242188 6.804688 0.242188 Z M 6.804688 0.242188 "/></g></g></g></svg>